<svg id="Layer" enable-background="new 0 0 64 64" height="512" viewBox="0 0 64 64" width="512" xmlns="http://www.w3.org/2000/svg"><path d="m32 10c12.15 0 22 9.85 22 22s-9.85 22-22 22-22-9.85-22-22 9.85-22 22-22zm8 26v-8c0-2.21-1.79-4-4-4h-8c-2.21 0-4 1.79-4 4v8c0 2.21 1.79 4 4 4h8c2.21 0 4-1.79 4-4z" fill="#4dd0e1"/><path d="m40 28v8c0 2.21-1.79 4-4 4h-8c-2.21 0-4-1.79-4-4v-8c0-2.21 1.79-4 4-4h8c2.21 0 4 1.79 4 4z" fill="#ff7043"/><g fill="#012e52"><path d="m32 8c-13.234 0-24 10.766-24 24 0 13.233 10.766 24 24 24 13.233 0 24-10.767 24-24 0-13.234-10.767-24-24-24zm0 44c-11.028 0-20-8.972-20-20s8.972-20 20-20 20 8.972 20 20-8.972 20-20 20z"/><path d="m36 22h-8c-3.309 0-6 2.691-6 6v8c0 3.309 2.691 6 6 6h8c3.309 0 6-2.691 6-6v-8c0-3.309-2.691-6-6-6zm2 14c0 1.103-.897 2-2 2h-8c-1.103 0-2-.897-2-2v-8c0-1.103.897-2 2-2h8c1.103 0 2 .897 2 2z"/></g></svg>